<svg xmlns="http://www.w3.org/2000/svg" x="0px" y="0px"
width="100" height="100"
viewBox="0 0 226 226"
style=" fill:#000000;"><g fill="none" fill-rule="nonzero" stroke="none" stroke-width="1" stroke-linecap="butt" stroke-linejoin="miter" stroke-miterlimit="10" stroke-dasharray="" stroke-dashoffset="0" font-family="none" font-weight="none" font-size="none" text-anchor="none" style="mix-blend-mode: normal"><path d="M0,226v-226h226v226z" fill="none"></path><g fill="#ffffff"><path d="M126.38344,13.47172c-2.34828,0.07062 -4.57297,1.05937 -6.215,2.73672l-96.79156,96.79156l96.79156,96.79156c2.26,2.36594 5.63234,3.31938 8.81047,2.48953c3.16047,-0.82984 5.63234,-3.30172 6.46219,-6.46219c0.82984,-3.17812 -0.12359,-6.55047 -2.48953,-8.81047l-84.00844,-84.00844l84.00844,-84.00844c2.66609,-2.59547 3.47828,-6.56812 2.03047,-10.01109c-1.46547,-3.42531 -4.87312,-5.61469 -8.59859,-5.50875zM185.14344,13.47172c-2.34828,0.07062 -4.57297,1.05937 -6.215,2.73672l-96.79156,96.79156l96.79156,96.79156c2.26,2.36594 5.63234,3.31938 8.81047,2.48953c3.16047,-0.82984 5.63234,-3.30172 6.46219,-6.46219c0.82984,-3.17812 -0.12359,-6.55047 -2.48953,-8.81047l-84.00844,-84.00844l84.00844,-84.00844c2.66609,-2.59547 3.47828,-6.56812 2.03047,-10.01109c-1.46547,-3.42531 -4.87312,-5.61469 -8.59859,-5.50875z"></path></g></g></svg>